<svg width="25" height="24" viewBox="0 0 25 24" fill="none" xmlns="http://www.w3.org/2000/svg">
<g clip-path="url(#clip0_1_1388)">
<path d="M12.4701 7.05175C9.88986 7.05175 7.79114 9.15047 7.79114 11.7307C7.79114 14.3109 9.88986 16.4096 12.4701 16.4096C15.0503 16.4096 17.149 14.3109 17.149 11.7307C17.149 9.15047 15.0503 7.05175 12.4701 7.05175ZM12.4701 15.1914C10.562 15.1914 9.00934 13.6388 9.00934 11.7307C9.00934 9.82258 10.562 8.26995 12.4701 8.26995C14.3782 8.26995 15.9308 9.82258 15.9308 11.7307C15.9308 13.6388 14.3782 15.1914 12.4701 15.1914Z" fill="black" stroke="black" stroke-width="0.5"/>
<path d="M23.3344 9.68822L23.3344 9.68822C23.6322 9.73331 23.8524 9.98957 23.852 10.2908M23.3344 9.68822L23.602 10.2904M23.3344 9.68822L20.6247 9.27818C20.4837 8.83462 20.3052 8.40226 20.0914 7.986L21.7164 5.78195L21.7164 5.78192C21.895 5.53955 21.8698 5.20302 21.6571 4.98992L21.657 4.98974L19.4506 2.78365L19.4505 2.78349C19.2376 2.57101 18.9011 2.54518 18.6585 2.724L18.6584 2.72401L16.4624 4.34287C16.0434 4.1255 15.6076 3.94414 15.1599 3.8008L14.7522 1.106L23.3344 9.68822ZM23.852 10.2908L23.602 10.2904M23.852 10.2908V10.2904H23.602M23.852 10.2908V13.4103C23.852 13.7116 23.6319 13.9674 23.3342 14.0125L23.3342 14.0125L20.6094 14.4249M23.602 10.2904V13.4103C23.602 13.5879 23.4722 13.7388 23.2968 13.7653L20.4175 14.2011M20.6094 14.4249C20.6257 14.3746 20.6414 14.3241 20.6568 14.2735L20.4175 14.2011M20.6094 14.4249L20.4549 14.4482L20.4175 14.2011M20.6094 14.4249C20.4678 14.8623 20.2902 15.2879 20.0783 15.6972M20.4175 14.2011C20.2585 14.7263 20.0462 15.235 19.7838 15.7191M19.7838 15.7191L19.985 15.5707L20.0783 15.6972M19.7838 15.7191L21.5149 18.0672M19.7838 15.7191L20.0036 15.8382C20.0289 15.7915 20.0538 15.7445 20.0783 15.6972M20.0783 15.6972L21.716 17.9186M21.5149 18.0672L21.716 17.9186M21.5149 18.0672C21.6205 18.2101 21.6054 18.4088 21.4799 18.5342M21.5149 18.0672L21.7161 17.9188L21.716 17.9186M21.716 17.9186C21.8952 18.1612 21.8695 18.4982 21.6567 18.711L21.4799 18.5342M21.4799 18.5342L21.6567 18.711L19.4504 20.9171L19.4502 20.9173C19.2373 21.1297 18.9009 21.1556 18.6582 20.9767L18.6582 20.9767L16.4284 19.333M21.4799 18.5342L16.4284 19.333M16.4284 19.333C16.4755 19.3088 16.5224 19.2842 16.5691 19.2592L16.4508 19.0389L16.3025 19.2401L16.4284 19.333ZM16.4284 19.333C16.0219 19.5414 15.5997 19.7162 15.1664 19.8553M16.4284 19.333L14.9426 19.663M15.1664 19.8553L15.1898 19.7004L14.9426 19.663M15.1664 19.8553C15.1159 19.8715 15.0652 19.8872 15.0145 19.9025L14.9426 19.663M15.1664 19.8553L14.7519 22.5947C14.7069 22.8927 14.451 23.1128 14.1497 23.1128H11.0298C10.7285 23.1128 10.4727 22.8927 10.4276 22.5948L10.6748 22.5574M14.9426 19.663L14.5047 22.5574C14.4782 22.7331 14.3274 22.8628 14.1497 22.8628H11.0298C10.8522 22.8628 10.7014 22.7331 10.6748 22.5574M10.6748 22.5574L10.4276 22.5947M10.6748 22.5574L10.2369 19.663C9.716 19.5067 9.21038 19.2974 8.72871 19.0389L10.4276 22.5947M10.4276 22.5947L10.0132 19.8553C9.57987 19.7162 9.15761 19.5414 8.75112 19.333M10.4276 22.5947L8.75112 19.333M8.75112 19.333L6.52134 20.9767L6.52132 20.9767C6.27909 21.1553 5.94218 21.1304 5.72915 20.9171L8.75112 19.333ZM19.7893 13.7864C19.8266 13.6492 19.9416 13.5468 20.0823 13.5255L22.884 13.1015V10.5993M19.7893 13.7864L6.19512 3.68654L8.45579 5.35302C8.57094 5.43777 8.72536 5.44638 8.84937 5.37432M19.7893 13.7864C19.6208 14.4077 19.3708 15.0062 19.0464 15.5656L19.7893 13.7864ZM22.884 10.5993L20.095 10.1774C19.9535 10.1559 19.8381 10.0527 19.8015 9.91433M22.884 10.5993L22.8467 10.8465L22.634 10.8143M22.884 10.5993H22.634V10.8143M19.8015 9.91433C19.6356 9.28806 19.3859 8.68285 19.0596 8.11547M19.8015 9.91433L19.5598 9.97835M19.8015 9.91433L19.5598 9.97831C19.5598 9.97832 19.5598 9.97834 19.5598 9.97835M19.0596 8.11547C18.9885 7.99194 18.9974 7.83801 19.0819 7.72333L20.7534 5.45596M19.0596 8.11547L18.8429 8.24018M19.0596 8.11547L18.8429 8.24011C18.8429 8.24013 18.8429 8.24016 18.8429 8.24018M20.7534 5.45596L18.9839 3.68654L16.7233 5.35302C16.6079 5.43777 16.4535 5.44662 16.3297 5.37432C15.7609 5.04395 15.1528 4.7909 14.5222 4.62212M20.7534 5.45596L20.5766 5.63274L20.4245 5.48069M20.7534 5.45596L20.5521 5.30761L20.4245 5.48069M14.5222 4.62212C14.3843 4.58526 14.2814 4.4701 14.2601 4.32886M14.5222 4.62212L14.4577 4.86364C15.0666 5.02664 15.6541 5.27107 16.2039 5.59035C16.4145 5.71327 16.6765 5.69758 16.8713 5.55451L16.8716 5.55425L18.9592 4.01536L20.4245 5.48069M14.5222 4.62212L14.4576 4.86362C14.2236 4.80104 14.049 4.60569 14.0129 4.36625L14.2601 4.32886M14.2601 4.32886L13.8406 1.55587M14.2601 4.32886L14.0129 4.36615L13.6256 1.80587M13.8406 1.55587H11.3384M13.8406 1.55587V1.80587H13.6256M13.8406 1.55587L13.5935 1.59326L13.6256 1.80587M11.3384 1.55587L10.919 4.32886M11.3384 1.55587L11.5856 1.59326L11.5535 1.80587M11.3384 1.55587V1.80587H11.5535M10.919 4.32886C10.8977 4.4701 10.7947 4.58526 10.6568 4.62212C10.0263 4.7909 9.41794 5.04395 8.84937 5.37432M10.919 4.32886L11.1662 4.36615M10.919 4.32886L11.1662 4.36625L11.1662 4.36615M8.84937 5.37432L8.97497 5.59048C8.97497 5.59048 8.97497 5.59048 8.97497 5.59048M8.84937 5.37432L8.97497 5.59048M4.75453 5.48069L6.21986 4.01536L8.30745 5.55425L8.3076 5.55437L4.75453 5.48069ZM4.75453 5.48069L6.29844 7.57499L6.29846 7.57502C6.44172 7.76941 6.45685 8.03047 6.33614 8.24018M4.75453 5.48069L2.29503 10.5993M8.97497 5.59048C9.52452 5.27116 10.1123 5.02667 10.7214 4.86364L8.97497 5.59048ZM6.33614 8.24018L6.11947 8.11547M6.33614 8.24018C6.33614 8.24018 6.33615 8.24018 6.33615 8.24017L6.11947 8.11547M6.33614 8.24018C6.02047 8.78867 5.77946 9.37349 5.61923 9.97835C5.55708 10.2131 5.36137 10.3885 5.12129 10.4246M6.11947 8.11547C6.19057 7.99194 6.18171 7.83801 6.09721 7.72333L6.11947 8.11547ZM5.12129 10.4246L5.08406 10.1774L5.12144 10.4246L5.12129 10.4246ZM5.12129 10.4246L2.54503 10.8143M2.54503 10.8143V10.5993H2.29503M2.54503 10.8143V12.8865M2.54503 10.8143L2.33242 10.8465L2.29503 10.5993M2.29503 10.5993L2.54503 12.8865M2.54503 12.8865L5.13416 13.2783C5.37269 13.3144 5.56766 13.4877 5.63102 13.7208L5.63105 13.721C5.79387 14.3211 6.03537 14.8997 6.34887 15.4402C6.47076 15.6502 6.456 15.9121 6.31244 16.1072L6.31232 16.1073L4.75453 18.2203L6.21985 19.6856L8.33976 18.1228L8.34007 18.1226C8.53425 17.9799 8.79506 17.9646 9.00453 18.085C9.54402 18.3949 10.1193 18.6331 10.7151 18.7929L10.7155 18.793C10.9488 18.8559 11.1233 19.051 11.1595 19.2903L11.5535 21.8951H13.6256L14.0196 19.2903C14.0196 19.2903 14.0196 19.2902 14.0196 19.2902C14.0558 19.0505 14.2305 18.8558 14.4636 18.793L14.4639 18.7929C15.0597 18.6331 15.6351 18.3949 16.1745 18.085C16.3842 17.9643 16.6448 17.9798 16.8391 18.1226L16.8393 18.1228L18.9592 19.6856L20.4245 18.2203L18.8668 16.1074C18.7226 15.912 18.7085 15.65 18.8302 15.4402C19.1437 14.8994 19.3852 14.3211 19.548 13.721L19.5481 13.7207C19.6114 13.4881 19.8062 13.3144 20.0449 13.2783L22.634 12.8865V10.8143M2.54503 12.8865L11.1662 4.36615M22.634 10.8143L20.0576 10.4246L20.0574 10.4246C19.8179 10.3881 19.6221 10.2134 19.5598 9.97835M19.5598 9.97835C19.3996 9.37357 19.1584 8.78874 18.8429 8.24018M18.8429 8.24018C18.7222 8.03047 18.7374 7.76941 18.8806 7.57502L18.8806 7.57499L20.4245 5.48069M13.6256 1.80587H11.5535M11.5535 1.80587L11.1662 4.36615M3.52306 18.711L5.72898 20.9169L14.15 0.837905H11.0301C10.8524 0.837905 10.7016 0.967661 10.675 1.14338L10.4279 1.10598L10.4279 1.106L10.0201 3.8008C9.57241 3.94419 9.13657 4.1257 8.71768 4.34291L6.52158 2.72401L6.52156 2.724C6.27916 2.54534 5.94251 2.57054 5.72939 2.78366L3.5233 4.98975C3.31052 5.20253 3.2849 5.5394 3.46364 5.78192L3.46367 5.78195L5.08868 7.986C4.8748 8.40226 4.69631 8.83462 4.55537 9.27818L1.84564 9.68821C1.54773 9.73326 1.32755 9.9891 1.32755 10.2904V13.4103C1.32755 13.7116 1.54763 13.9674 1.84535 14.0125L1.84538 14.0125L4.57024 14.4249C4.71192 14.8623 4.88957 15.2879 5.10131 15.6972L3.46342 17.9188L3.4634 17.9188C3.28458 18.1615 3.31041 18.4979 3.52289 18.7108L3.52306 18.711Z" fill="black" stroke="black" stroke-width="0.5"/>
</g>
<defs>
<clipPath id="clip0_1_1388">
<rect width="24" height="24" fill="white" transform="translate(0.5)"/>
</clipPath>
</defs>
</svg>
